
<svg xmlns="http://www.w3.org/2000/svg" version="1.1" xmlns:xlink="http://www.w3.org/1999/xlink" preserveAspectRatio="none" x="0px" y="0px" width="550px" height="400px" viewBox="0 0 550 400">
<defs>
<path id="Layer1_0_1_STROKES" stroke="#000000" stroke-width="1" stroke-linejoin="round" stroke-linecap="round" fill="none" d="
M 506.05 179.9
L 494.85 140.4
Q 500.45 137.9 502.65 133.05 504.85 128.2 504.85 120.3 504.85 108.5 498.25 103.7 491.65 98.9 478.55 98.9
L 457.55 98.9 457.55 178.5 473.95 178.5 473.95 143.2 479.95 143.2 489.15 179.9 429.15 179.9 429.15 168.7 410.05 168.7 410.05 143.3 424.65 143.3 424.65 131.8 410.05 131.8 410.05 110.3 428.95 110.3 428.95 98.9 393.65 98.9 393.65 179.9 361.35 179.9 361.35 98.9 344.95 98.9 344.95 179.9 314.95 179.9 303.75 140.4
Q 309.35 137.9 311.55 133.05 313.75 128.2 313.75 120.3 313.75 108.5 307.15 103.7 300.55 98.9 287.45 98.9
L 266.45 98.9 266.45 178.5 282.85 178.5 282.85 143.2 288.85 143.2 298.05 179.9 220.9 179.9
Q 223.55 179.15 225.6 177.95 230.75 174.9 232.85 169.1 234.95 163.3 234.95 154.3
L 234.95 98.9 218.65 98.9 218.65 156.6
Q 218.65 162.4 217.25 165.7 215.85 169 211.45 169 207.05 169 205.65 165.7 204.25 162.4 204.25 156.6
L 204.25 98.9 188.05 98.9 188.05 154.3
Q 188.05 163.3 190.15 169.1 192.25 174.9 197.35 177.95 199.4 179.15 202.05 179.9
L 142.9 179.9
Q 148.8 178.3 152.1 174.25 157.65 167.5 157.65 154.5
L 157.65 124.2
Q 157.65 111.2 152.1 104.55 146.55 97.9 133.75 97.9 120.85 97.9 115.35 104.5 109.85 111.1 109.85 124.2
L 109.85 154.4
Q 109.85 167.5 115.35 174.25 118.65 178.3 124.55 179.9
L 64.95 179.9 64.95 143.5 80.05 143.5 80.05 132 64.95 132 64.95 110.2 82.75 110.2 82.75 98.9 48.55 98.9 48.55 179.9 8.8 179.9 8.8 231.3 21.3 231.3 21.3 300.1 37.9 300.1 37.9 231.3 50.2 231.3 50.2 219.1 57.5 219.1 57.5 300.1 73.9 300.1 73.9 263.4 79.9 263.4 89.1 300.1 106 300.1 94.8 260.6
Q 100.4 258.1 102.6 253.25 104.8 248.4 104.8 240.5 104.8 228.7 98.2 223.9 92 219.4 80.1 219.1
L 127.5 219.1 111.8 300.1 127.3 300.1 130.4 282.3 143.2 282.3 146.2 300.1 161.4 300.1 145.8 219.1 169.6 219.1 169.6 300.1 183.7 300.1 183.7 255.3 201.7 300.1 212.8 300.1 212.8 219.1 237 219.1
Q 232.25 220.45 228.95 223.45 223.1 228.8 223.1 238.7 223.1 245.4 225.75 250.2 228.4 255 233.4 259.2
L 241.8 266.5
Q 246.4 270.5 248.55 273.85 250.7 277.2 250.7 282 250.7 284.9 249.4 286.75 248.1 288.6 245.2 288.6 241.3 288.6 239.35 284.95 237.4 281.3 237.2 273.6
L 223 276
Q 223.5 288.9 229.1 295.05 234.7 301.2 245.9 301.2 252.1 301.2 256.85 298.6 261.6 296 264.2 291.45 266.8 286.9 266.8 281.1 266.8 273.5 263.5 267.85 260.2 262.2 254.4 257.1
L 246.2 249.9
Q 242.4 246.6 240.65 243.85 238.9 241.1 238.9 237.1 238.9 234.3 240.4 232.25 241.9 230.2 244.6 230.2 248.3 230.2 249.55 233.25 250.8 236.3 251 242.7
L 265.3 240.6
Q 264.7 230.8 260.4 224.45 257.85 220.6 252.8 219.1
L 275.5 219.1 275.5 300.1 291.9 300.1 291.9 263.7 307 263.7 307 252.2 291.9 252.2 291.9 230.4 309.7 230.4 309.7 219.1 331.8 219.1
Q 325.65 220.65 322.3 224.7 316.8 231.3 316.8 244.4
L 316.8 274.6
Q 316.8 287.7 322.3 294.45 327.8 301.2 340.7 301.2 353.5 301.2 359.05 294.45 364.6 287.7 364.6 274.7
L 364.6 244.4
Q 364.6 231.4 359.05 224.75 355.65 220.65 349.55 219.1
L 375.6 219.1 375.6 300.1 392 300.1 392 263.4 398 263.4 407.2 300.1 424.1 300.1 412.9 260.6
Q 418.5 258.1 420.7 253.25 422.9 248.4 422.9 240.5 422.9 228.7 416.3 223.9 410.1 219.4 398.2 219.1
L 435 219.1 433.6 300.1 445.7 300.1 446.9 244.8 457.6 300.1 467.8 300.1 478.2 245.1 479.5 300.1 491.5 300.1 490 219.1 515.45 219.1
Q 510.7 220.4 507.35 223.45 501.5 228.8 501.5 238.7 501.5 245.4 504.15 250.2 506.8 255 511.8 259.2
L 520.2 266.5
Q 524.8 270.5 526.95 273.85 529.1 277.2 529.1 282 529.1 284.9 527.8 286.75 526.5 288.6 523.6 288.6 519.7 288.6 517.75 284.95 515.8 281.3 515.6 273.6
L 501.4 276
Q 501.9 288.9 507.5 295.05 513.1 301.2 524.3 301.2 530.5 301.2 535.25 298.6 540 296 542.6 291.45 545.2 286.9 545.2 281.1 545.2 273.5 541.9 267.85 538.6 262.2 532.8 257.1
L 524.6 249.9
Q 520.8 246.6 519.05 243.85 517.3 241.1 517.3 237.1 517.3 234.3 518.8 232.25 520.3 230.2 523 230.2 526.7 230.2 527.95 233.25 529.2 236.3 529.4 242.7
L 543.7 240.6
Q 543.1 230.8 538.8 224.45 536.2 220.6 531.2 219.1
L 543.7 219.1 543.7 179.9 506.05 179.9 Z"/>
</defs>

<g transform="matrix( 1, 0, 0, 1, 0,0) ">
<use xlink:href="#Layer1_0_1_STROKES"/>
</g>
</svg>
