
<svg xmlns="http://www.w3.org/2000/svg" version="1.1" xmlns:xlink="http://www.w3.org/1999/xlink" preserveAspectRatio="none" x="0px" y="0px" width="550px" height="400px" viewBox="0 0 550 400">
<defs>
<g id="Layer0_0_FILL">
<path fill="#FFFF00" stroke="none" d="
M 345.8 83.15
Q 343.8 82.15 341.45 81.65 334.6 80.25 328.55 83.85 322.5 87.5 320.9 94.15
L 298.45 190.6 279.95 92.95
Q 279.4 90.2 278.1 87.9 276.6 85 274.1 82.85 269.45 79 262.8 79 263.05 79.15 263.3 79.35 261.6 79.3 259.8 79.6 252.75 80.85 248.7 86.7 244.65 92.55 246.1 99.4
L 259.3 170.35
Q 257.8 168.15 255.55 166.35 250.1 161.9 242.85 162.7
L 242.25 162.7
Q 235.2 163.5 230.75 169.15 226.3 174.6 227.1 181.45
L 227.1 181.65 228.3 192.45
Q 226.1 186.35 220.45 183.5 220.5 183.6 220.55 183.7 215.85 180.95 210.2 181.45
L 209.8 181.45
Q 202.3 182.45 197.9 187.9 193.45 193.55 194.45 200.4
L 196.55 220.1 197.7 244.4
Q 201.1 274.25 211 291.35 219.85 306.5 239.4 314.55 258.8 322.65 280.55 320.6 318.2 317 337.2 289.2 338.95 288.3 339.85 286.35 341.7 282.65 343.15 278.9 346.75 271.65 349.35 263.15 353.95 249 348.95 230.25 345.25 216.2 337.65 211.9 336.5 210.95 335.2 210.1 332.95 208.95 330.8 207.9
L 355.4 102
Q 357.8 88.3 345.7 83.05 345.75 83.1 345.8 83.15 Z"/>
</g>
</defs>

<g transform="matrix( 1, 0, 0, 1, 0,0) ">
<use xlink:href="#Layer0_0_FILL"/>
</g>
</svg>
